<?xml version="1.0" standalone="no"?>
<!DOCTYPE svg PUBLIC "-//W3C//DTD SVG 20010904//EN"
 "http://www.w3.org/TR/2001/REC-SVG-20010904/DTD/svg10.dtd">
<svg version="1.0" xmlns="http://www.w3.org/2000/svg"
 width="260.000000pt" height="260.000000pt" viewBox="0 0 260.000000 260.000000"
 preserveAspectRatio="xMidYMid meet">
<metadata>
Created by potrace 1.14, written by Peter Selinger 2001-2017
</metadata>
<g transform="translate(0.000000,260.000000) scale(0.100000,-0.100000)"
fill="#000000" stroke="none">
<path d="M1330 2440 c-6 -11 -16 -20 -23 -20 -7 0 -21 -13 -30 -30 -10 -16
-25 -30 -33 -30 -8 0 -14 -6 -14 -13 0 -7 -9 -18 -20 -25 -16 -10 -20 -10 -20
0 0 9 -20 13 -70 13 -51 0 -69 3 -66 12 3 7 -1 10 -10 6 -7 -3 -14 -8 -14 -13
0 -4 -20 -6 -45 -5 -30 1 -46 -3 -50 -13 -4 -11 -12 -8 -34 14 -15 16 -26 33
-23 38 3 5 0 6 -7 2 -6 -4 -18 0 -27 8 -9 9 -20 14 -25 10 -5 -3 -8 0 -7 7 2
7 -6 15 -17 17 -11 2 -24 9 -30 14 -7 8 -6 8 4 3 9 -5 12 -4 7 3 -5 8 -13 8
-31 0 -13 -6 -22 -15 -19 -19 3 -5 0 -9 -6 -9 -7 0 -10 -7 -6 -15 3 -8 2 -15
-3 -15 -4 0 -8 -7 -8 -15 0 -10 4 -12 12 -5 7 6 11 3 11 -10 0 -10 -4 -16 -8
-14 -4 3 -8 -3 -9 -13 -4 -116 -3 -136 8 -140 7 -3 11 -17 9 -34 -2 -16 1 -26
5 -23 5 3 9 2 10 -3 0 -4 2 -19 5 -32 2 -14 -1 -28 -8 -32 -6 -4 -13 -15 -14
-25 -2 -9 -6 -20 -11 -23 -4 -3 -8 -31 -7 -61 1 -76 -1 -80 -52 -77 -24 1 -46
-2 -48 -8 -3 -6 -5 -6 -5 1 -1 6 -12 9 -26 6 -14 -2 -22 -8 -19 -13 3 -5 -9
-9 -26 -9 -18 0 -33 -6 -37 -15 -8 -23 5 -31 28 -17 11 7 24 10 29 7 6 -4 10
-1 10 6 0 9 3 9 14 0 10 -8 16 -9 21 -1 3 6 11 8 16 5 5 -4 9 -2 9 3 0 5 10 9
23 8 12 -1 25 3 28 8 4 5 10 -5 14 -22 4 -21 11 -29 21 -25 8 3 22 2 31 -1 15
-6 15 -8 3 -17 -13 -8 -13 -10 -1 -18 8 -5 20 -7 27 -4 6 2 15 -1 20 -8 5 -8
3 -10 -6 -4 -8 5 -11 4 -6 -3 3 -6 17 -9 30 -6 29 5 40 -23 22 -58 -6 -13 -13
-36 -14 -53 -1 -16 -7 -31 -12 -33 -6 -2 -10 -16 -10 -31 0 -15 -5 -32 -12
-39 -14 -14 -12 -215 2 -220 6 -2 10 -22 10 -43 0 -24 4 -38 10 -34 6 4 10 -7
10 -24 0 -20 -7 -35 -20 -43 -11 -7 -20 -19 -20 -26 0 -7 -4 -10 -10 -7 -6 4
-10 -5 -10 -19 0 -14 -4 -26 -10 -26 -5 0 -10 -13 -10 -30 0 -16 5 -30 11 -30
6 0 9 -9 6 -20 -3 -11 1 -27 9 -34 17 -18 18 -79 2 -109 -6 -12 -11 -38 -11
-57 0 -19 -3 -40 -8 -46 -5 -6 -10 -35 -10 -65 -2 -72 -22 -125 -54 -143 -10
-6 -28 -19 -39 -28 -11 -10 -24 -18 -28 -18 -5 0 -6 -4 -3 -10 3 -5 2 -10 -3
-10 -16 0 -32 -46 -19 -59 8 -8 8 -11 -1 -11 -28 0 27 -70 77 -98 20 -12 25
-12 32 0 5 7 9 8 9 3 0 -6 14 -10 32 -10 36 0 46 -16 24 -38 -8 -8 -12 -17 -9
-21 3 -3 1 -11 -5 -18 -10 -13 -15 -40 -13 -67 1 -11 4 -11 16 -1 12 10 15 10
15 0 0 -9 5 -8 18 3 10 10 30 17 44 17 15 0 28 4 30 9 2 5 12 11 23 13 11 1
23 7 27 12 3 5 21 9 38 8 18 0 38 5 45 11 15 16 394 15 403 0 4 -6 33 -10 65
-9 31 0 57 -2 57 -6 0 -4 7 -4 17 -1 12 5 14 3 8 -7 -6 -10 1 -12 29 -8 21 2
36 0 36 -7 0 -6 3 -6 8 1 10 15 84 6 75 -10 -4 -6 1 -5 11 3 15 13 19 13 27 0
7 -12 9 -12 9 1 0 10 3 11 8 4 10 -16 184 -17 194 -1 6 9 11 8 18 -3 5 -8 10
-10 10 -4 0 15 70 24 70 9 0 -6 3 -6 8 1 4 6 20 14 37 18 16 4 33 13 37 19 4
7 12 12 18 12 5 0 11 5 12 10 0 6 8 15 16 21 8 6 17 26 19 44 2 19 7 36 11 39
4 4 8 23 8 44 1 27 -3 37 -14 37 -9 0 -12 3 -9 6 3 4 1 16 -5 28 -7 11 -11 24
-11 27 1 4 -7 15 -17 24 -11 10 -20 15 -20 11 0 -4 -9 -2 -20 4 -11 6 -20 18
-20 26 0 8 -5 12 -11 9 -6 -4 -13 2 -16 14 -6 23 -23 29 -23 9 -1 -8 -6 -6
-14 5 -7 9 -18 17 -24 17 -19 0 -19 25 0 53 11 15 17 34 14 42 -5 13 3 19 24
17 3 0 3 25 2 55 -3 34 0 53 6 49 5 -3 9 13 9 39 0 25 -3 45 -7 45 -4 0 -10
13 -12 30 -3 16 0 30 5 30 5 0 4 6 -2 13 -6 8 -8 17 -4 20 3 4 1 7 -5 7 -7 0
-12 9 -12 20 0 11 -4 20 -10 20 -5 0 -10 9 -10 20 0 11 -4 20 -10 20 -5 0 -10
7 -10 16 0 8 -4 13 -9 9 -5 -3 -15 0 -23 7 -21 21 -65 41 -75 35 -5 -4 -10 0
-11 8 -1 8 -3 22 -4 30 -1 8 -6 15 -12 15 -6 0 -4 5 4 10 10 6 11 10 3 10 -7
0 -12 3 -12 8 4 19 -15 71 -27 76 -7 3 -11 12 -8 21 4 10 0 15 -11 15 -9 0
-14 4 -11 9 3 5 -1 12 -10 15 -8 3 -13 10 -10 14 6 10 -138 162 -154 162 -5 0
-10 5 -10 11 0 5 -4 7 -10 4 -9 -6 -14 7 -11 27 0 4 -5 5 -12 2 -16 -6 -60 43
-51 58 4 5 1 14 -6 18 -7 4 -14 19 -15 32 -5 40 -17 68 -27 62 -6 -4 -5 3 2
15 9 18 8 27 -5 47 -9 13 -13 29 -10 34 3 6 1 10 -6 10 -8 0 -8 4 -1 13 7 8 7
18 2 27 -5 8 -6 18 -3 23 14 22 9 59 -9 71 -17 12 -18 17 -8 36 8 16 9 25 2
29 -6 4 -7 12 -3 19 10 17 1 73 -11 66 -5 -3 -8 11 -7 33 2 21 0 44 -4 50 -4
7 -3 14 2 18 6 3 8 12 4 20 -3 8 0 15 7 15 8 0 11 9 8 25 -3 14 -1 28 3 31 14
8 10 24 -6 24 -8 0 -14 3 -13 8 0 4 -4 18 -10 32 -6 14 -11 21 -11 17 -1 -4
-10 -3 -21 3 -15 8 -21 6 -30 -10z m-350 -1785 c0 -18 36 -56 45 -47 5 4 5 1
1 -5 -4 -7 -25 -13 -47 -13 -24 0 -39 5 -40 13 -1 6 -2 19 -3 27 -3 26 13 50
29 44 8 -4 15 -12 15 -19z"/>
</g>
</svg>
